<svg width="40" height="40" viewBox="0 0 40 40" fill="none" xmlns="http://www.w3.org/2000/svg">
<path d="M19.8331 39.7357C30.7866 39.7357 39.6663 30.8405 39.6663 19.8678C39.6663 8.89513 30.7866 0 19.8331 0C8.87954 0 0 8.89513 0 19.8678C0 30.8405 8.87954 39.7357 19.8331 39.7357Z" fill="white"/>
<mask id="mask0_21_1337" style="mask-type:luminance" maskUnits="userSpaceOnUse" x="5" y="5" width="29" height="29">
<path d="M33.5318 5.76807H5.76538V33.5345H33.5318V5.76807Z" fill="white"/>
</mask>
<g mask="url(#mask0_21_1337)">
<path d="M15.4365 6.6813C12.6614 7.64393 10.2708 9.4705 8.61088 11.8931C6.95096 14.3157 6.1114 17.2068 6.22035 20.1414C6.32289 23.0761 7.36756 25.8999 9.19412 28.1975C11.0271 30.4951 13.5395 32.1461 16.3786 32.9075C18.6795 33.501 21.0828 33.5266 23.3964 32.9838C25.4922 32.5133 27.4277 31.5071 29.0171 30.0638C30.6706 28.5154 31.8691 26.5459 32.4843 24.3675C33.1573 21.9975 33.2791 19.5057 32.8368 17.0831H19.9227V22.4391H27.4021C27.2546 23.2927 26.9342 24.108 26.4599 24.836C25.9857 25.5634 25.3768 26.1883 24.6526 26.6728C23.7425 27.2772 22.7107 27.6835 21.634 27.8662C20.5509 28.0674 19.4421 28.0674 18.359 27.8662C17.2631 27.6393 16.2248 27.1862 15.3083 26.5363C13.8471 25.4987 12.7447 24.024 12.1615 22.3237C11.5783 20.5913 11.5783 18.7135 12.1615 16.9812C12.5781 15.7667 13.2574 14.6611 14.1547 13.7465C15.1865 12.6807 16.4875 11.9193 17.9231 11.5451C19.3523 11.1708 20.8585 11.1983 22.2813 11.6252C23.39 11.9649 24.4026 12.5596 25.2358 13.3601C26.0818 12.5218 26.9213 11.6809 27.7609 10.8375C28.1967 10.3844 28.671 9.95244 29.1004 9.48843C27.8186 8.29829 26.3189 7.37284 24.6782 6.76399C21.6981 5.68151 18.4359 5.65202 15.4365 6.6813Z" fill="white"/>
<path d="M15.4364 6.68133C18.4358 5.65141 21.698 5.67961 24.6782 6.76144C26.3189 7.37478 27.8186 8.30474 29.094 9.49938C28.6646 9.96339 28.2031 10.3973 27.7609 10.8485C26.9213 11.6887 26.0818 12.5263 25.2358 13.3601C24.4026 12.5597 23.39 11.9649 22.2813 11.6252C20.8649 11.1971 19.3523 11.1676 17.9231 11.5406C16.4875 11.913 15.1865 12.6731 14.1547 13.7376C13.2574 14.6522 12.5716 15.7577 12.1615 16.9722L7.66235 13.4909C9.27742 10.2986 12.0589 7.85738 15.4364 6.68133Z" fill="#E33629"/>
<path d="M6.47039 16.9394C6.71393 15.7416 7.1177 14.5815 7.66887 13.4907L12.1616 16.981C11.5719 18.7134 11.5719 20.5912 12.1616 22.3236C10.6619 23.4804 9.16216 24.643 7.66887 25.812C6.29094 23.0709 5.86795 19.9472 6.47039 16.9394Z" fill="#F8BD00"/>
<path d="M19.9229 17.0806H32.837C33.2792 19.5038 33.1574 21.9956 32.4844 24.365C31.8692 26.5441 30.6707 28.5136 29.0172 30.0613C27.5624 28.9295 26.1075 27.8054 24.6527 26.6735C25.3769 26.1877 25.9858 25.5622 26.4601 24.8342C26.9343 24.1055 27.2547 23.2896 27.4022 22.4346H19.9229C19.9229 20.6517 19.9229 18.8661 19.9229 17.0806Z" fill="#587DBD"/>
<path d="M7.66235 25.8122C9.16205 24.6554 10.6618 23.4921 12.1615 22.3237C12.7383 24.0247 13.8406 25.4994 15.3083 26.5364C16.2248 27.1837 17.263 27.633 18.3654 27.8553C19.4485 28.0566 20.5573 28.0566 21.6404 27.8553C22.7171 27.6727 23.7489 27.2663 24.659 26.6626C26.1138 27.7944 27.5687 28.9186 29.0235 30.051C27.4341 31.495 25.4986 32.5018 23.4028 32.9729C21.0892 33.5164 18.6858 33.4901 16.385 32.8966C14.5648 32.4115 12.8665 31.5552 11.3924 30.3824C9.83504 29.1455 8.56602 27.5862 7.66235 25.8122Z" fill="#319F43"/>
</g>
</svg>
